<?xml version="1.0" encoding="UTF-8" standalone="no"?>
<!-- Created with Inkscape (http://www.inkscape.org/) -->

<svg
   width="49.572811mm"
   height="49.572815mm"
   viewBox="0 0 49.572811 49.572815"
   version="1.1"
   id="svg1"
   xmlns:inkscape="http://www.inkscape.org/namespaces/inkscape"
   xmlns:sodipodi="http://sodipodi.sourceforge.net/DTD/sodipodi-0.dtd"
   xmlns="http://www.w3.org/2000/svg"
   xmlns:svg="http://www.w3.org/2000/svg">
  <sodipodi:namedview
     id="namedview1"
     pagecolor="#505050"
     bordercolor="#ffffff"
     borderopacity="1"
     inkscape:showpageshadow="0"
     inkscape:pageopacity="0"
     inkscape:pagecheckerboard="1"
     inkscape:deskcolor="#505050"
     inkscape:document-units="mm"
     showguides="true">
    <sodipodi:guide
       position="-109.27761,305.19257"
       orientation="0.70710678,-0.70710678"
       id="guide2"
       inkscape:locked="false" />
  </sodipodi:namedview>
  <defs
     id="defs1">
    <inkscape:path-effect
       effect="powerclip"
       id="path-effect39"
       is_visible="true"
       lpeversion="1"
       inverse="true"
       flatten="false"
       hide_clip="false"
       message="Use fill-rule evenodd on &lt;b&gt;fill and stroke&lt;/b&gt; dialog if no flatten result after convert clip to paths." />
    <clipPath
       clipPathUnits="userSpaceOnUse"
       id="clipPath39">
      <path
         style="display:none;opacity:1;fill:#ffffff;fill-opacity:1;stroke-width:0.264583"
         d="m 91.38017,52.326516 5.91693,-7.608588 c 0,0 5.45312,7.78692 5.45312,6.348558 0,-1.438363 9.6779,-26.22477 9.6779,-26.22477 l 3.20683,11.663312 2.35913,-3.452453 5.51779,12.377836 4.83178,-5.021625 5.62293,11.093916 0.42926,18.509654 -41.415859,-0.834591 -3.719089,-10.862506 z"
         id="path39" />
      <path
         id="lpe_path-effect39"
         style="opacity:1;fill:#ffffff;fill-opacity:1;stroke-width:0.264583"
         class="powerclip"
         d="M 82.641718,9.4500523 H 142.21453 V 69.022863 H 82.641718 Z m 8.738452,42.8764637 -2.119278,5.988743 3.719089,10.862506 41.415859,0.834591 -0.42926,-18.509654 -5.62293,-11.093916 -4.83178,5.021625 -5.51779,-12.377836 -2.35913,3.452453 -3.20683,-11.663312 c 0,0 -9.6779,24.786407 -9.6779,26.22477 0,1.438362 -5.45312,-6.348558 -5.45312,-6.348558 z" />
    </clipPath>
  </defs>
  <g
     inkscape:label="Layer 1"
     inkscape:groupmode="layer"
     id="layer1"
     transform="translate(-69.570345,-0.05531126)">
    <path
       style="opacity:1;fill:#58ac55;fill-opacity:1;stroke-width:0.264583"
       id="path2"
       clip-path="url(#clipPath39)"
       inkscape:path-effect="#path-effect39"
       sodipodi:type="arc"
       sodipodi:cx="112.42812"
       sodipodi:cy="39.236458"
       sodipodi:rx="24.786406"
       sodipodi:ry="24.786406"
       d="M 137.21453,39.236458 A 24.786406,24.786406 0 0 1 112.42812,64.022863 24.786406,24.786406 0 0 1 87.641718,39.236458 24.786406,24.786406 0 0 1 112.42812,14.450052 24.786406,24.786406 0 0 1 137.21453,39.236458 Z"
       transform="translate(-18.071374,-14.394741)"
       inkscape:export-filename="imigator own logo.png"
       inkscape:export-xdpi="96"
       inkscape:export-ydpi="96" />
  </g>
</svg>
