<?xml version="1.0" encoding="UTF-8" standalone="no"?>
<!-- Created with Inkscape (http://www.inkscape.org/) -->

<svg
   width="3.8981671mm"
   height="3.6102691mm"
   viewBox="0 0 3.8981671 3.6102691"
   version="1.1"
   id="svg1"
   xmlns="http://www.w3.org/2000/svg"
   xmlns:svg="http://www.w3.org/2000/svg">
  <defs
     id="defs1" />
  <g
     id="layer1"
     transform="translate(-52.387502,-69.585417)">
    <g
       id="g2"
       transform="translate(8.1383896,-0.16260929)"
       style="fill:#ff0101;fill-opacity:1">
      <path
         style="font-family:'IBM Plex Mono';-inkscape-font-specification:'IBM Plex Mono';white-space:pre;opacity:0.976205;fill:#ff0101;fill-opacity:1;stroke-width:0.280001"
         d="m 45.525233,72.64122 0.17864,-0.11192 v -2.216149 l -0.80645,0.465604 c -0.205317,0.118539 -0.518207,0.26749 -0.595733,0.374374 -0.06279,0.08657 -0.05185,0.350989 -0.05185,0.552072 -3e-6,0.179919 -0.0085,0.441135 0.07292,0.511769 0.104747,0.09093 0.338312,-0.05809 0.516115,-0.143813 l -0.56515,1.285139 0.271282,-0.159921 0.53975,-1.257773 0.440485,-0.245532 z m -0.62146,-0.821556 c -0.112867,0.06357 -0.375246,0.237096 -0.436629,0.217506 -0.03312,-0.0095 -0.03312,-0.08148 -0.03312,-0.175391 4e-6,-0.114885 -6.61e-4,-0.251084 3e-6,-0.317777 v -0.151238 c 0,-0.103717 0.05756,-0.168262 0.126497,-0.197074 0.105793,-0.06021 0.231076,-0.124068 0.343256,-0.188835 l 0.62146,-0.350018 v 0.8128 z"
         id="text1-5-1-6-6-3"
         aria-label="R" />
      <path
         style="font-size:3.175px;font-family:'IBM Plex Mono';-inkscape-font-specification:'IBM Plex Mono';opacity:0.976205;fill:#ff0101;fill-opacity:1;stroke-width:0.28"
         d="m 47.188453,71.431918 -0.420813,0.570756 v 0.758051 l -0.163387,0.09433 v -2.21615 l 0.163387,-0.09334 v 1.161781 c 0.139291,-0.215628 0.268016,-0.415774 0.404913,-0.651971 l 0.65405,-1.122208 0.320675,-0.185142 -0.859617,1.524862 0.743628,0.771109 -0.172936,0.08699 -0.33495,-0.349533 z"
         id="text4-5-7-6-0-6"
         aria-label="K" />
      <path
         style="opacity:0.976205;fill:#ff0101;fill-opacity:1;stroke-width:0.280001"
         d="m 46.604253,72.855055 -1.074015,-2.441654 0.173635,-0.10025 1.033342,2.465139 z"
         id="path18-6-1" />
    </g>
  </g>
</svg>
